<svg width="640" height="520" viewBox="0 0 640 520" fill="none" xmlns="http://www.w3.org/2000/svg">
  <rect width="640" height="520" rx="34" fill="#F8FAFC"/>
  <path d="M73 392C112 330 155 306 213 320C268 334 284 379 346 358C402 339 421 288 492 298C542 305 576 340 595 392H73Z" fill="#DDF7EF"/>
  <circle cx="506" cy="116" r="62" fill="#FDE68A"/>
  <circle cx="506" cy="116" r="41" fill="#FBBF24"/>
  <rect x="98" y="116" width="342" height="226" rx="24" fill="#FFFFFF" stroke="#D7E0EA" stroke-width="4"/>
  <rect x="126" y="148" width="286" height="40" rx="12" fill="#E0F2FE"/>
  <rect x="126" y="211" width="126" height="96" rx="18" fill="#D1FAE5"/>
  <rect x="273" y="211" width="139" height="18" rx="9" fill="#CBD5E1"/>
  <rect x="273" y="247" width="118" height="18" rx="9" fill="#CBD5E1"/>
  <rect x="273" y="283" width="94" height="18" rx="9" fill="#CBD5E1"/>
  <path d="M167 280C167 257 180 241 199 241C218 241 231 257 231 280V293H167V280Z" fill="#34D399"/>
  <circle cx="199" cy="226" r="24" fill="#0F766E"/>
  <rect x="375" y="92" width="114" height="88" rx="20" fill="#0F172A"/>
  <circle cx="432" cy="136" r="28" fill="#38BDF8"/>
  <circle cx="432" cy="136" r="15" fill="#E0F2FE"/>
  <rect x="401" y="76" width="62" height="28" rx="14" fill="#334155"/>
  <path d="M87 395H553" stroke="#94A3B8" stroke-width="8" stroke-linecap="round"/>
  <rect x="156" y="351" width="68" height="92" rx="28" fill="#60A5FA"/>
  <circle cx="190" cy="329" r="28" fill="#F9C6A6"/>
  <path d="M170 325C175 305 204 302 217 319C208 313 194 316 185 314C179 313 174 316 170 325Z" fill="#334155"/>
  <rect x="289" y="343" width="78" height="104" rx="31" fill="#F97316"/>
  <circle cx="328" cy="319" r="30" fill="#F8BFA0"/>
  <path d="M303 318C306 298 334 289 354 309C340 305 333 315 321 311C313 309 308 312 303 318Z" fill="#475569"/>
  <rect x="429" y="354" width="72" height="90" rx="29" fill="#22C55E"/>
  <circle cx="465" cy="331" r="28" fill="#F6C3A0"/>
  <path d="M442 330C447 311 470 303 488 320C478 317 472 323 462 321C454 319 448 321 442 330Z" fill="#1E293B"/>
  <path d="M205 397H313" stroke="#E2E8F0" stroke-width="18" stroke-linecap="round"/>
  <path d="M361 397H461" stroke="#E2E8F0" stroke-width="18" stroke-linecap="round"/>
  <circle cx="542" cy="362" r="16" fill="#FB7185"/>
  <circle cx="109" cy="96" r="14" fill="#38BDF8"/>
  <circle cx="86" cy="262" r="10" fill="#34D399"/>
  <circle cx="566" cy="241" r="12" fill="#A78BFA"/>
</svg>
